<svg data-v-423bf9ae="" xmlns="http://www.w3.org/2000/svg" viewBox="0 0 747 90" class="iconLeft"><!----><!----><!----><g data-v-423bf9ae="" id="baf7ea96-5c56-45e0-9c2d-3ffc5ee69da8" fill="white" transform="matrix(4.408522947042699,0,0,4.408522947042699,140.04030694184178,0.011020129113838095)"><path d="M6.71 8.82C7.66 8.46 8.05 7.59 8.05 6.84C8.05 5.35 6.79 4.36 5.17 4.36L1.50 4.36L1.50 13.32C2.37 13.51 3.71 13.66 4.84 13.66C7.05 13.66 8.49 12.47 8.49 10.94C8.49 9.61 7.52 8.98 6.71 8.82ZM2.73 5.52L4.88 5.52C6.03 5.52 6.79 6.00 6.79 6.97C6.79 7.81 6.03 8.39 4.88 8.39L2.73 8.39ZM4.81 12.50C4.31 12.50 3.39 12.46 2.73 12.33L2.73 9.49L4.91 9.49C6.18 9.49 7.23 9.94 7.23 10.94C7.23 11.89 6.18 12.50 4.81 12.50ZM13.66 6.55C11.58 6.55 10.09 8.20 10.09 10.14C10.09 12.09 11.58 13.73 13.66 13.73C15.74 13.73 17.23 12.09 17.23 10.14C17.23 8.20 15.74 6.55 13.66 6.55ZM13.66 7.64C15.12 7.64 16.06 8.82 16.06 10.14C16.06 11.47 15.12 12.63 13.66 12.63C12.20 12.63 11.25 11.47 11.25 10.14C11.25 8.82 12.20 7.64 13.66 7.64ZM20.19 13.52L20.19 3.68L19.07 3.68L19.07 13.52ZM25.33 6.55C23.46 6.55 22.04 7.96 22.04 10.21C22.04 12.29 23.46 13.73 25.22 13.73C26.26 13.73 27.10 13.08 27.58 12.36L27.58 13.52L28.70 13.52L28.70 6.69L27.58 6.69L27.58 7.60C26.99 6.95 26.11 6.55 25.33 6.55ZM25.54 7.64C26.37 7.64 26.99 8.07 27.56 8.78L27.58 10.09C27.59 11.55 26.65 12.63 25.40 12.63C24.08 12.63 23.20 11.54 23.20 10.21C23.20 8.89 24.08 7.64 25.54 7.64ZM31.92 5.26C32.44 5.26 32.85 4.81 32.85 4.33C32.85 3.84 32.44 3.40 31.92 3.40C31.39 3.40 30.99 3.84 30.99 4.33C30.99 4.81 31.39 5.26 31.92 5.26ZM32.65 6.69L30.45 6.69L30.45 7.74L31.53 7.74L31.53 13.66C31.53 14.78 30.99 15.42 29.79 16.00L30.30 17.01C31.73 16.42 32.65 15.34 32.65 13.49ZM36.07 5.26C36.59 5.26 37.00 4.81 37.00 4.33C37.00 3.84 36.59 3.40 36.07 3.40C35.53 3.40 35.14 3.84 35.14 4.33C35.14 4.81 35.53 5.26 36.07 5.26ZM36.76 6.69L34.56 6.69L34.56 7.74L35.64 7.74L35.64 13.52L36.76 13.52ZM40.24 7.83L40.24 4.36L39.12 4.36L39.12 7.83ZM44.53 6.55C43.07 6.55 42.12 7.41 42.12 8.57C42.12 9.35 42.37 9.98 43.44 10.38L44.45 10.75C45.09 10.98 45.43 11.20 45.43 11.63C45.43 12.21 44.90 12.63 44.04 12.63C43.35 12.63 42.40 12.21 42.01 11.92L42.01 13.13C42.33 13.36 43.31 13.73 44.12 13.73C45.58 13.73 46.63 12.80 46.63 11.63C46.63 10.86 46.20 10.25 45.31 9.94L44.16 9.53C43.53 9.31 43.33 8.91 43.33 8.57C43.33 8.13 43.75 7.64 44.61 7.64C45.29 7.64 46.02 7.98 46.40 8.27L46.40 7.07C46.09 6.84 45.34 6.55 44.53 6.55ZM60.84 13.52L64.05 4.36L62.71 4.36L60.47 11.17L58.12 4.38L57.33 4.36L54.91 11.17L52.76 4.36L51.42 4.36L54.50 13.52L55.19 13.52L57.68 6.59L60.14 13.52ZM71.31 9.87C71.31 8.00 70.27 6.55 68.17 6.55C66.24 6.55 64.87 8.20 64.87 10.14C64.87 12.09 66.36 13.73 68.44 13.73C69.51 13.73 70.22 13.26 70.49 12.99L70.49 11.85C70.04 12.18 69.43 12.63 68.44 12.63C67.13 12.63 66.23 11.69 66.06 10.54L71.31 10.54ZM66.09 9.58C66.28 8.50 67.05 7.64 68.17 7.64C69.13 7.64 70.07 8.26 70.21 9.58ZM75.97 6.55C74.10 6.55 72.68 7.96 72.68 10.21C72.68 12.29 74.10 13.73 75.87 13.73C76.90 13.73 77.74 13.08 78.22 12.36L78.22 13.52L79.34 13.52L79.34 6.69L78.22 6.69L78.22 7.60C77.63 6.95 76.75 6.55 75.97 6.55ZM76.18 7.64C77.01 7.64 77.63 8.07 78.20 8.78L78.22 10.09C78.23 11.55 77.29 12.63 76.04 12.63C74.72 12.63 73.84 11.54 73.84 10.21C73.84 8.89 74.72 7.64 76.18 7.64ZM83.55 6.69L83.55 4.72L83.03 4.72C82.58 6.07 82.00 7.01 81.12 7.41L81.12 7.74L82.43 7.74L82.43 11.80C82.43 12.96 83.03 13.73 84.19 13.73C84.88 13.73 85.23 13.54 85.60 13.25L85.60 12.33C85.33 12.50 84.98 12.66 84.44 12.66C83.84 12.66 83.55 12.32 83.55 11.74L83.55 7.74L85.54 7.74L85.54 6.69ZM90.93 6.55C90.00 6.55 89.13 7.23 88.70 7.77L88.70 3.68L87.58 3.68L87.58 13.52L88.70 13.52L88.70 8.98C89.25 8.27 90.02 7.64 90.74 7.64C91.82 7.64 92.33 8.29 92.33 9.46L92.34 13.52L93.46 13.52L93.46 9.35C93.46 7.46 92.33 6.55 90.93 6.55ZM101.54 9.87C101.54 8.00 100.50 6.55 98.40 6.55C96.47 6.55 95.10 8.20 95.10 10.14C95.10 12.09 96.59 13.73 98.67 13.73C99.74 13.73 100.45 13.26 100.72 12.99L100.72 11.85C100.27 12.18 99.65 12.63 98.67 12.63C97.36 12.63 96.46 11.69 96.29 10.54L101.54 10.54ZM96.32 9.58C96.51 8.50 97.28 7.64 98.40 7.64C99.35 7.64 100.30 8.26 100.43 9.58ZM106.61 6.55C105.83 6.55 105.03 7.15 104.51 8.05L104.51 6.69L103.39 6.69L103.39 13.52L104.51 13.52L104.51 9.39C105.01 8.48 105.52 7.72 106.45 7.72C106.80 7.72 107.16 7.86 107.45 8.08L107.45 6.74C107.20 6.62 106.93 6.55 106.61 6.55ZM118.70 11.33L119.66 13.52L121.13 13.52L116.85 4.36L116.24 4.36L111.96 13.52L113.44 13.52L114.41 11.33ZM118.19 10.17L114.91 10.17L116.57 6.44ZM125.90 6.55C124.87 6.55 124.03 7.12 123.55 7.85L123.55 6.69L122.43 6.69L122.43 16.80L123.55 16.80L123.55 12.61C124.14 13.26 125.02 13.73 125.79 13.73C127.67 13.73 129.09 12.25 129.09 9.99C129.09 7.92 127.67 6.55 125.90 6.55ZM125.73 7.64C127.05 7.64 127.93 8.67 127.93 9.99C127.93 11.32 127.05 12.63 125.59 12.63C124.76 12.63 124.14 12.14 123.57 11.43L123.55 10.12C123.54 8.65 124.48 7.64 125.73 7.64ZM134.41 6.55C133.37 6.55 132.54 7.12 132.06 7.85L132.06 6.69L130.94 6.69L130.94 16.80L132.06 16.80L132.06 12.61C132.64 13.26 133.52 13.73 134.30 13.73C136.17 13.73 137.59 12.25 137.59 9.99C137.59 7.92 136.17 6.55 134.41 6.55ZM134.23 7.64C135.56 7.64 136.43 8.67 136.43 9.99C136.43 11.32 135.56 12.63 134.09 12.63C133.26 12.63 132.64 12.14 132.07 11.43L132.06 10.12C132.04 8.65 132.99 7.64 134.23 7.64Z"></path></g><!----><g data-v-423bf9ae="" id="a878bc2c-d3b5-4d12-a866-b7a2eab3bc35" transform="matrix(1.598324672706343,0,0,1.598324672706343,-16.548737693780808,-32.51269318896344)" stroke="none" fill="white"><path d="M80.729 51.55c-.637-.177-1.016-.592-1.61-.671.875-4.046-.372-8.265-3.181-11.666-3.323-4.04-8.284-5.499-13.662-4.219-.801-2.559-2.323-5.992-5.156-8.844-3.652-3.688-8.413-5.448-14.139-5.217-2.437.091-4.963.712-7.3 1.801-5.081 2.358-8.855 6.941-10.343 12.574-.553 2.065-.793 4.261-.751 6.741-4.52.664-8.307 2.882-10.852 6.449-4.455 6.262-4.447 14.719.021 21.053 4.137 5.877 10.479 7.086 14.896 7.477 2.998.272 23.028.208 39.307.107l1.614-.007c2.051.007 4.376.007 6.657-.17 6.176-.487 13.003-4.434 13.39-11.968.329-6.392-3.328-11.915-8.891-13.44zm2.038 14.65c-.796 3.474-3.935 4.646-6.993 5.141-4.275.686-8.814.315-13.139.334-4.068.023-8.137.045-12.211.051-12.248.029-19.768-.027-21.273-.163-5.364-.479-8.721-2.073-10.903-5.171-3.081-4.365-3.089-10.415-.039-14.703 2.04-2.866 5.242-4.376 9.268-4.376h3.009l-.277-3.003c-.279-3.017-.138-5.425.438-7.59 1.07-4.057 3.752-7.331 7.348-9.001 1.688-.788 3.48-1.229 5.203-1.304 11.891-.464 14.137 10.817 14.363 12.205l.514 2.951s3.912-2.345 8.371-1.428c5.892 1.213 8.346 6.397 7.036 11.95-.486 2.089-1.644 3.627-1.644 3.627s2.315-.172 4.945.455c4.939 1.198 7.185 4.785 5.984 10.025z"></path></g><!----></svg>